#N canvas 0 0 500 500 ;
#X obj 40 182 osc~ 396;
#X obj 20 124 osc~ 7.1;
#X obj 30 153 *~;
#X obj 40 124 sig~ 1;
#X obj 100 124 osc~ 5;
#X obj 90 153 *~;
#X obj 80 124 sig~ 1;
#X obj 60 182 *~;
#X obj 50 211 *~;
#X obj 130 153 phasor~ 176;
#X obj 140 124 phasor~ 308;
#X obj 151 96 osc~ 8;
#X obj 181 67 osc~ 3.4;
#X obj 171 96 *~;
#X obj 161 67 sig~ 1;
#X obj 161 124 *~;
#X obj 151 153 *~;
#X obj 140 182 *~;
#X obj 201 124 osc~ 9.7;
#X obj 221 124 osc~ 3.3;
#X obj 211 153 *~;
#X obj 281 124 osc~ 3.1;
#X obj 271 153 *~;
#X obj 261 124 sig~ 1;
#X obj 241 182 *~;
#X obj 191 211 *~;
#X obj 120 239 *~;
#X obj 120 268 dac~;
#X connect 1 0 2 0;
#X connect 3 0 2 1;
#X connect 6 0 5 0;
#X connect 4 0 5 1;
#X connect 2 0 7 0;
#X connect 5 0 7 1;
#X connect 0 0 8 0;
#X connect 7 0 8 1;
#X connect 14 0 13 0;
#X connect 12 0 13 1;
#X connect 11 0 15 0;
#X connect 13 0 15 1;
#X connect 10 0 16 0;
#X connect 15 0 16 1;
#X connect 9 0 17 0;
#X connect 16 0 17 1;
#X connect 18 0 20 0;
#X connect 19 0 20 1;
#X connect 23 0 22 0;
#X connect 21 0 22 1;
#X connect 20 0 24 0;
#X connect 22 0 24 1;
#X connect 17 0 25 0;
#X connect 24 0 25 1;
#X connect 8 0 26 0;
#X connect 25 0 26 1;
#X connect 26 0 27 0;
#X connect 26 0 27 1;
